<svg version="1.1" id="Layer_1" xmlns="http://www.w3.org/2000/svg" xmlns:xlink="http://www.w3.org/1999/xlink" x="0px" y="0px"
	 width="100%" viewBox="0 0 400 400" enable-background="new 0 0 400 400" xml:space="preserve">
<path fill="#000000" opacity="1.000000" stroke="none" 
	d="
M234.000000,401.000000 
	C156.000000,401.000000 78.500000,401.000000 1.000000,401.000000 
	C1.000000,267.666656 1.000000,134.333328 1.000000,1.000000 
	C134.333328,1.000000 267.666656,1.000000 401.000000,1.000000 
	C401.000000,134.333328 401.000000,267.666656 401.000000,401.000000 
	C345.500000,401.000000 290.000000,401.000000 234.000000,401.000000 
M128.007538,63.966114 
	C128.007538,63.966114 127.956085,63.931664 127.239784,64.010368 
	C122.316589,66.981354 117.319794,69.839348 112.504646,72.976189 
	C110.434586,74.324730 108.741440,76.251831 106.963524,77.938850 
	C106.963524,77.938850 106.913689,77.864616 106.200104,77.893646 
	C92.622986,87.270996 81.619522,99.110626 72.135742,113.297661 
	C61.706821,127.827965 53.882500,143.767776 49.645386,161.026947 
	C46.838009,172.462326 45.652905,184.461349 45.182255,196.265488 
	C44.509701,213.133469 47.021427,229.675552 51.595379,246.111710 
	C56.622715,264.177094 65.287346,280.303955 75.914398,295.211456 
	C82.989723,305.136658 92.556656,313.346649 101.394028,321.927155 
	C105.370087,325.787659 110.057495,329.064575 114.834747,331.914642 
	C121.370720,335.813995 128.142563,339.410858 135.102631,342.481598 
	C142.770264,345.864563 150.636856,348.932343 158.654846,351.346771 
	C166.472534,353.700836 174.521149,355.539062 182.598022,356.707153 
	C189.925995,357.766846 197.435730,358.013458 204.851929,357.879211 
	C210.820679,357.771179 216.798355,356.738312 222.718887,355.785400 
	C228.608597,354.837433 234.595901,353.990417 240.248047,352.184265 
	C250.043655,349.054108 260.064026,346.097839 269.158020,341.443054 
	C279.252747,336.276093 288.415833,329.289032 298.625214,322.997070 
	C299.116516,322.693085 299.607849,322.389099 300.008972,322.032776 
	C300.008972,322.032776 300.072601,322.115387 300.690125,321.852356 
	C306.560669,317.768219 308.341400,309.951935 314.954865,306.429108 
	C317.305817,305.176819 319.094299,302.868591 321.758667,300.810638 
	C322.219910,299.867706 322.681152,298.924774 323.011200,297.992645 
	C323.011200,297.992645 323.022400,298.123810 323.514648,297.977295 
	C323.648987,297.689484 323.783356,297.401703 324.185944,296.470154 
	C337.168427,280.710876 346.141479,262.955109 351.868256,243.326584 
	C355.705444,230.174591 357.428040,216.761505 357.757050,203.277054 
	C358.164734,186.564697 355.682373,170.059631 350.578613,154.018707 
	C345.640259,138.497711 338.826782,123.743759 329.148895,110.794670 
	C318.464478,96.498848 305.726562,84.097183 290.746918,73.846550 
	C276.796753,64.300369 262.218842,56.670898 245.379410,52.042934 
	C244.975159,51.974976 244.570923,51.907021 243.685638,51.257622 
	C239.104996,50.193512 234.524368,49.129402 229.309006,48.027241 
	C228.885254,48.015179 228.461517,48.003117 227.487808,47.432884 
	C221.023575,47.013157 214.559357,46.593426 207.529694,46.077633 
	C207.339691,46.056255 207.149704,46.034878 206.794495,45.713665 
	C206.554062,45.816368 206.313644,45.919071 205.224823,46.037811 
	C203.810776,46.029480 202.396713,46.021149 200.804718,45.708900 
	C200.553314,45.812962 200.301926,45.917027 199.325607,46.064907 
	C198.844360,46.115570 198.363113,46.166229 196.973450,46.105606 
	C187.530960,45.960217 178.046646,45.407978 168.354523,48.981926 
	C167.933411,48.974297 167.512299,48.966667 166.281464,48.876690 
	C154.167130,53.572708 142.052811,58.268726 129.995514,62.992432 
	C129.995514,62.992432 129.996048,62.929031 129.385437,62.991074 
	C128.905579,63.315144 128.425720,63.639217 128.007538,63.966114 
z"/>
<path fill="#113B55" opacity="1.000000" stroke="none" 
	d="
M244.166672,51.839066 
	C244.570923,51.907021 244.975159,51.974976 245.780762,52.407852 
	C248.681396,54.171196 251.095200,55.759533 253.696838,56.930573 
	C260.157104,59.838451 266.982117,62.055756 273.136932,65.489204 
	C279.404877,68.985756 285.077271,73.561569 290.954407,77.743568 
	C296.218719,81.489525 301.735687,84.973389 306.537537,89.250565 
	C311.503021,93.673500 315.872955,98.799057 320.234833,103.849243 
	C322.049408,105.950127 323.168396,108.651802 325.034058,111.808456 
	C325.777893,112.271576 328.829041,113.296516 328.827789,114.317673 
	C328.821350,119.507927 333.306305,121.705917 335.313934,125.453644 
	C337.245453,129.059311 338.802460,132.872360 340.413055,136.641678 
	C343.570099,144.030197 347.623016,151.206390 349.564819,158.909180 
	C353.983765,176.438034 357.776672,194.241577 354.933014,212.507019 
	C353.130737,224.083649 351.645721,235.871277 348.166473,246.984482 
	C343.785706,260.977234 337.893250,274.631348 328.638855,286.288086 
	C325.512482,290.226044 322.708282,295.964050 315.534729,294.060120 
	C315.052673,293.875916 314.901306,293.652557 314.757294,293.082825 
	C314.334045,292.599884 314.029083,292.378204 313.767731,292.154907 
	C313.811340,292.153351 313.791229,292.238251 313.824280,291.868103 
	C311.247314,286.914886 308.841644,282.093994 302.414276,281.751404 
	C302.272247,281.713928 302.192017,281.431366 302.329163,281.081604 
	C301.721649,277.592010 300.727875,274.760223 296.350372,275.852936 
	C296.190552,275.791626 296.089203,275.464630 296.248901,275.126007 
	C294.811523,269.081329 291.153198,265.682678 285.171936,264.403442 
	C285.338440,260.924561 285.571960,257.851746 285.818329,254.824951 
	C285.831177,254.870987 285.735748,254.876587 286.005188,254.713272 
	C286.494812,253.980499 286.714966,253.411057 286.987579,252.511871 
	C287.692017,250.787384 288.344025,249.392609 288.998016,247.998901 
	C289.000000,248.000000 288.997253,247.995316 289.252350,247.838806 
	C289.658478,247.118790 289.809509,246.555283 290.187408,245.802048 
	C290.670593,244.882828 290.926910,244.153336 291.442932,243.277985 
	C291.774780,242.758606 291.846893,242.385101 292.018066,241.831833 
	C292.117157,241.652054 292.109375,241.241592 292.412170,241.041138 
	C295.106293,232.226868 297.497650,223.613052 299.977692,214.671280 
	C300.047577,213.893494 300.028717,213.443680 300.192322,212.697495 
	C300.516113,211.263855 300.657440,210.126587 300.886963,208.532516 
	C300.924011,203.715698 300.872864,199.355682 300.881531,194.746063 
	C300.881500,194.336166 300.821625,194.175888 300.807739,193.605682 
	C300.252014,189.438126 299.653412,185.679977 299.048065,181.922913 
	C292.820343,143.269653 258.469696,106.993385 211.564697,102.234680 
	C181.526932,99.187225 154.630402,108.034012 132.776718,129.520401 
	C108.396118,153.491241 98.528351,182.802887 103.314980,216.553024 
	C106.759895,240.842865 118.520538,260.978546 137.339615,276.773468 
	C158.804047,294.788635 183.469376,302.828674 211.550781,300.268158 
	C227.769455,298.789307 242.431580,293.120300 256.061707,284.562286 
	C259.221497,282.578369 261.204803,282.906891 263.857239,285.375824 
	C274.941711,295.693359 286.293915,305.723785 297.348694,316.072357 
	C298.837585,317.466125 299.192566,320.071198 300.072601,322.115387 
	C300.072601,322.115387 300.008972,322.032776 299.826782,321.694763 
	C299.091248,321.936005 298.537933,322.515228 297.984589,323.094482 
	C288.415833,329.289032 279.252747,336.276093 269.158020,341.443054 
	C260.064026,346.097839 250.043655,349.054108 240.248047,352.184265 
	C234.595901,353.990417 228.608597,354.837433 222.718887,355.785400 
	C216.798355,356.738312 210.820679,357.771179 204.851929,357.879211 
	C197.435730,358.013458 189.925995,357.766846 182.598022,356.707153 
	C174.521149,355.539062 166.472534,353.700836 158.654846,351.346771 
	C150.636856,348.932343 142.770264,345.864563 135.102631,342.481598 
	C128.142563,339.410858 121.370720,335.813995 114.834747,331.914642 
	C110.057495,329.064575 105.370087,325.787659 101.394028,321.927155 
	C92.556656,313.346649 82.989723,305.136658 75.914398,295.211456 
	C65.287346,280.303955 56.622715,264.177094 51.595379,246.111710 
	C47.021427,229.675552 44.509701,213.133469 45.182255,196.265488 
	C45.652905,184.461349 46.838009,172.462326 49.645386,161.026947 
	C53.882500,143.767776 61.706821,127.827965 72.807190,113.119255 
	C74.564323,112.332230 75.913368,111.956955 76.692924,111.077110 
	C81.734901,105.386559 86.601791,99.540985 91.636681,93.843979 
	C93.599419,91.623138 95.906143,89.710236 97.954025,87.559792 
	C100.988327,84.373535 103.931641,81.100632 106.913689,77.864616 
	C106.913689,77.864616 106.963524,77.938850 107.276855,77.900391 
	C114.945663,76.103783 120.100739,70.204086 126.964600,67.464912 
	C127.655136,67.189339 127.642433,65.151604 127.956085,63.931664 
	C127.956085,63.931664 128.007538,63.966114 128.276886,63.936668 
	C129.029510,63.581158 129.512787,63.255093 129.996048,62.929031 
	C129.996048,62.929031 129.995514,62.992432 130.382080,62.988068 
	C132.386749,62.742493 134.085114,62.738075 135.609833,62.221306 
	C144.870224,59.082699 154.125519,55.920238 163.290604,52.518093 
	C164.791092,51.961102 165.835815,50.176346 167.091187,48.959038 
	C167.512299,48.966667 167.933411,48.974297 168.970551,49.222519 
	C170.885712,49.598209 172.208237,49.959942 173.479919,49.828812 
	C178.720612,49.288425 183.956726,48.674946 189.172516,47.933514 
	C192.097870,47.517673 194.980164,46.799076 197.881866,46.216888 
	C198.363113,46.166229 198.844360,46.115570 199.920959,46.037613 
	C200.516296,46.010315 200.982666,46.012817 200.982666,46.012817 
	C202.396713,46.021149 203.810776,46.029480 205.870407,46.023636 
	C206.515991,46.009457 206.959732,46.013500 206.959732,46.013500 
	C207.149704,46.034878 207.339691,46.056255 208.118866,46.334709 
	C215.151276,47.058212 221.594528,47.524632 228.037766,47.991058 
	C228.461517,48.003117 228.885254,48.015179 229.758423,48.384949 
	C233.320221,50.046185 236.363068,51.583008 239.578278,52.541744 
	C240.918701,52.941444 242.626129,52.110458 244.166672,51.839066 
z"/>
<path fill="#FDFEFD" opacity="1.000000" stroke="none" 
	d="
M300.381348,321.983887 
	C299.192566,320.071198 298.837585,317.466125 297.348694,316.072357 
	C286.293915,305.723785 274.941711,295.693359 263.857239,285.375824 
	C261.204803,282.906891 259.221497,282.578369 256.061707,284.562286 
	C242.431580,293.120300 227.769455,298.789307 211.550781,300.268158 
	C183.469376,302.828674 158.804047,294.788635 137.339615,276.773468 
	C118.520538,260.978546 106.759895,240.842865 103.314980,216.553024 
	C98.528351,182.802887 108.396118,153.491241 132.776718,129.520401 
	C154.630402,108.034012 181.526932,99.187225 211.564697,102.234680 
	C258.469696,106.993385 292.820343,143.269653 299.048065,181.922913 
	C299.653412,185.679977 300.252014,189.438126 300.699219,193.712723 
	C300.427856,194.552475 300.520172,194.807800 300.821686,194.995651 
	C300.872864,199.355682 300.924011,203.715698 300.583984,208.634033 
	C300.131836,210.459518 300.070862,211.726685 300.009888,212.993851 
	C300.028717,213.443680 300.047577,213.893494 299.638000,214.791443 
	C298.495758,216.856812 297.616180,218.423096 297.100281,220.101166 
	C295.753296,224.482605 294.453949,228.885483 293.356903,233.334366 
	C292.720367,235.915695 292.510986,238.602341 292.109375,241.241592 
	C292.109375,241.241592 292.117157,241.652054 291.833069,242.032349 
	C291.427032,242.749725 291.305145,243.086777 291.183228,243.423843 
	C290.926910,244.153336 290.670593,244.882828 289.972229,245.996735 
	C289.352539,246.919205 289.174896,247.457260 288.997253,247.995316 
	C288.997253,247.995316 289.000000,248.000000 288.641968,248.058731 
	C282.048065,251.271164 281.468231,252.383255 282.485870,259.307007 
	C282.143219,260.406067 281.917633,261.211090 281.521057,262.313477 
	C280.883820,267.854462 283.983185,269.078369 288.649719,268.968445 
	C290.011475,270.250244 291.100067,271.407043 292.040436,272.898071 
	C292.429230,274.888245 292.508179,276.977753 293.588715,278.119171 
	C296.890198,281.606628 300.426270,284.914093 304.149261,287.950500 
	C309.687775,292.467651 315.464325,296.692932 321.139557,301.042419 
	C319.094299,302.868591 317.305817,305.176819 314.954865,306.429108 
	C308.341400,309.951935 306.560669,317.768219 300.381348,321.983887 
M160.461029,160.131287 
	C160.199585,160.312042 160.027252,160.555801 159.945679,160.949783 
	C159.945679,160.949783 159.861984,160.925125 159.132050,160.951141 
	C157.808289,162.687363 156.484528,164.423584 155.013107,165.997513 
	C155.013107,165.997513 155.172791,166.149521 154.480392,166.220413 
	C154.015564,167.168533 153.550735,168.116669 153.003067,169.012756 
	C153.003067,169.012756 153.074127,169.081573 152.360947,169.145737 
	C149.170166,170.595200 147.056900,172.667633 146.578629,176.487549 
	C146.213547,179.403381 145.248444,182.374268 143.937149,185.016373 
	C140.398697,192.145874 142.457764,199.623383 142.214218,206.947037 
	C142.192490,207.600479 143.386169,208.294327 144.240433,209.220352 
	C144.240433,209.220352 144.230087,209.557251 144.112549,210.206543 
	C144.349380,210.798615 144.586227,211.390686 144.992172,212.646774 
	C144.991531,213.102036 144.990906,213.557281 144.532104,214.539856 
	C145.440720,218.997910 145.529999,223.867035 147.499542,227.792831 
	C149.295120,231.371902 153.129715,233.928009 156.000000,236.999649 
	C156.000000,236.999649 156.067581,236.937561 156.018738,237.682114 
	C156.198395,240.332733 156.156586,243.216141 160.011993,242.001022 
	C160.011993,242.001022 160.263626,241.722092 160.163406,242.458038 
	C160.457260,243.190201 160.546539,244.157730 161.076447,244.618317 
	C166.677429,249.486816 172.370255,253.933182 179.667328,256.491821 
	C188.301086,259.519135 196.949738,260.462616 205.896088,259.890869 
	C206.958786,259.822968 207.954834,258.711945 209.061142,257.963593 
	C209.061142,257.963593 209.186050,258.036346 209.792221,258.105957 
	C210.522827,257.810944 211.253433,257.515930 212.717163,257.031342 
	C213.472961,256.996582 214.228745,256.961823 215.417892,257.361206 
	C216.952682,256.651672 218.487488,255.942123 220.510040,254.970993 
	C220.871719,254.912247 221.233414,254.853500 222.257767,254.927185 
	C225.656860,254.251129 230.748535,256.731628 231.421158,249.981613 
	C231.421158,249.981613 231.877731,249.877319 232.335999,249.740555 
	C232.622421,249.575348 232.835129,249.342712 233.338837,248.568588 
	C233.874847,248.318817 234.410843,248.069061 235.349747,248.281555 
	C237.785065,246.878235 240.849930,245.988937 242.511551,243.953918 
	C245.157425,240.713425 246.868439,236.709610 248.970627,232.984192 
	C248.970627,232.984192 249.010376,232.963959 249.740280,232.952011 
	C254.022629,230.509781 258.107391,219.967270 256.994568,213.344330 
	C257.058838,212.890427 257.123077,212.436539 257.589233,211.467728 
	C257.649902,210.832443 257.710571,210.197144 257.786224,209.019119 
	C257.900635,208.676758 258.015076,208.334396 258.848480,207.705856 
	C259.216064,206.830734 259.841980,205.975433 259.910950,205.077377 
	C260.550629,196.746246 259.965942,188.502289 256.645905,180.759796 
	C254.996353,176.912888 255.590607,171.475830 249.994278,170.015488 
	C249.994278,170.015488 249.948746,170.030655 249.853928,169.601654 
	C249.718460,169.326065 249.509933,169.126984 248.972122,168.628723 
	C248.972122,168.628723 248.885635,168.182266 248.933258,167.427353 
	C246.092834,160.308533 241.848053,154.681870 233.350433,153.085403 
	C233.350433,153.085403 233.017303,152.847153 232.981567,152.120804 
	C230.862076,148.239136 219.594711,143.957870 213.346024,145.008179 
	C212.891312,144.941452 212.436584,144.874741 211.443176,144.401810 
	C210.783661,144.358459 210.124130,144.315109 209.169876,144.306458 
	C209.169876,144.306458 208.956497,144.100204 208.727783,143.339111 
	C203.659424,140.774490 194.353729,141.535141 190.271713,144.980103 
	C189.512726,144.994278 188.753723,145.008453 187.484818,144.559174 
	C183.450729,145.609833 179.245224,146.254318 175.444641,147.858276 
	C173.032059,148.876419 171.221619,151.321396 169.041122,153.027664 
	C169.041122,153.027664 169.111008,153.149567 168.372025,153.083481 
	C167.278854,154.106277 166.185699,155.129089 164.892670,156.599930 
	C164.664230,156.859482 164.377701,157.003296 163.321655,157.024750 
	C162.525696,157.977829 161.729736,158.930908 160.962494,159.964371 
	C160.962494,159.964371 160.878448,159.949417 160.461029,160.131287 
z"/>
<path fill="#244253" opacity="1.000000" stroke="none" 
	d="
M315.739777,294.106110 
	C322.708282,295.964050 325.512482,290.226044 328.638855,286.288086 
	C337.893250,274.631348 343.785706,260.977234 348.166473,246.984482 
	C351.645721,235.871277 353.130737,224.083649 354.933014,212.507019 
	C357.776672,194.241577 353.983765,176.438034 349.564819,158.909180 
	C347.623016,151.206390 343.570099,144.030197 340.413055,136.641678 
	C338.802460,132.872360 337.245453,129.059311 335.313934,125.453644 
	C333.306305,121.705917 328.821350,119.507927 328.827789,114.317673 
	C328.829041,113.296516 325.777893,112.271576 325.034058,111.808456 
	C323.168396,108.651802 322.049408,105.950127 320.234833,103.849243 
	C315.872955,98.799057 311.503021,93.673500 306.537537,89.250565 
	C301.735687,84.973389 296.218719,81.489525 290.954407,77.743568 
	C285.077271,73.561569 279.404877,68.985756 273.136932,65.489204 
	C266.982117,62.055756 260.157104,59.838451 253.696838,56.930573 
	C251.095200,55.759533 248.681396,54.171196 246.085907,52.447380 
	C262.218842,56.670898 276.796753,64.300369 290.746918,73.846550 
	C305.726562,84.097183 318.464478,96.498848 329.148895,110.794670 
	C338.826782,123.743759 345.640259,138.497711 350.578613,154.018707 
	C355.682373,170.059631 358.164734,186.564697 357.757050,203.277054 
	C357.428040,216.761505 355.705444,230.174591 351.868256,243.326584 
	C346.141479,262.955109 337.168427,280.710876 323.728271,296.801300 
	C323.187897,297.462891 323.105133,297.793365 323.022400,298.123810 
	C323.022400,298.123810 323.011200,297.992645 322.659973,297.959229 
	C320.119080,296.652557 317.929443,295.379333 315.739777,294.106110 
z"/>
<path fill="#244253" opacity="1.000000" stroke="none" 
	d="
M106.556900,77.879135 
	C103.931641,81.100632 100.988327,84.373535 97.954025,87.559792 
	C95.906143,89.710236 93.599419,91.623138 91.636681,93.843979 
	C86.601791,99.540985 81.734901,105.386559 76.692924,111.077110 
	C75.913368,111.956955 74.564323,112.332230 73.080643,112.934113 
	C81.619522,99.110626 92.622986,87.270996 106.556900,77.879135 
z"/>
<path fill="#E9F4F6" opacity="1.000000" stroke="none" 
	d="
M315.534729,294.060120 
	C317.929443,295.379333 320.119080,296.652557 322.725586,297.953796 
	C322.681152,298.924774 322.219910,299.867706 321.449097,300.926514 
	C315.464325,296.692932 309.687775,292.467651 304.149261,287.950500 
	C300.426270,284.914093 296.890198,281.606628 293.588715,278.119171 
	C292.508179,276.977753 292.429230,274.888245 292.328735,273.017731 
	C293.873230,273.690308 294.981232,274.577484 296.089203,275.464630 
	C296.089203,275.464630 296.190552,275.791626 296.504150,276.113037 
	C298.609161,278.100098 300.400574,279.765747 302.192017,281.431366 
	C302.192017,281.431366 302.272247,281.713928 302.593140,282.009033 
	C306.539764,285.615509 310.165497,288.926880 313.791229,292.238251 
	C313.791229,292.238251 313.811340,292.153351 313.865173,292.431213 
	C314.237885,292.920746 314.556702,293.132385 314.875549,293.344055 
	C314.901306,293.652557 315.052673,293.875916 315.534729,294.060120 
z"/>
<path fill="#244253" opacity="1.000000" stroke="none" 
	d="
M166.686325,48.917862 
	C165.835815,50.176346 164.791092,51.961102 163.290604,52.518093 
	C154.125519,55.920238 144.870224,59.082699 135.609833,62.221306 
	C134.085114,62.738075 132.386749,62.742493 130.353546,62.974220 
	C142.052811,58.268726 154.167130,53.572708 166.686325,48.917862 
z"/>
<path fill="#244253" opacity="1.000000" stroke="none" 
	d="
M127.597931,63.971016 
	C127.642433,65.151604 127.655136,67.189339 126.964600,67.464912 
	C120.100739,70.204086 114.945663,76.103783 107.233627,77.889008 
	C108.741440,76.251831 110.434586,74.324730 112.504646,72.976189 
	C117.319794,69.839348 122.316589,66.981354 127.597931,63.971016 
z"/>
<path fill="#244253" opacity="1.000000" stroke="none" 
	d="
M197.427658,46.161247 
	C194.980164,46.799076 192.097870,47.517673 189.172516,47.933514 
	C183.956726,48.674946 178.720612,49.288425 173.479919,49.828812 
	C172.208237,49.959942 170.885712,49.598209 169.286469,49.222488 
	C178.046646,45.407978 187.530960,45.960217 197.427658,46.161247 
z"/>
<path fill="#244253" opacity="1.000000" stroke="none" 
	d="
M243.926147,51.548344 
	C242.626129,52.110458 240.918701,52.941444 239.578278,52.541744 
	C236.363068,51.583008 233.320221,50.046185 230.075775,48.403973 
	C234.524368,49.129402 239.104996,50.193512 243.926147,51.548344 
z"/>
<path fill="#244253" opacity="1.000000" stroke="none" 
	d="
M227.762787,47.711967 
	C221.594528,47.524632 215.151276,47.058212 208.401581,46.382744 
	C214.559357,46.593426 221.023575,47.013157 227.762787,47.711967 
z"/>
<path fill="#FDFEFD" opacity="1.000000" stroke="none" 
	d="
M298.304901,323.045776 
	C298.537933,322.515228 299.091248,321.936005 299.871887,321.720947 
	C299.607849,322.389099 299.116516,322.693085 298.304901,323.045776 
z"/>
<path fill="#244253" opacity="1.000000" stroke="none" 
	d="
M129.690735,62.960052 
	C129.512787,63.255093 129.029510,63.581158 128.246048,63.935257 
	C128.425720,63.639217 128.905579,63.315144 129.690735,62.960052 
z"/>
<path fill="#E9F4F6" opacity="1.000000" stroke="none" 
	d="
M323.268524,298.050537 
	C323.105133,297.793365 323.187897,297.462891 323.594177,297.123169 
	C323.783356,297.401703 323.648987,297.689484 323.268524,298.050537 
z"/>
<path fill="#244253" opacity="1.000000" stroke="none" 
	d="
M206.877106,45.863583 
	C206.959732,46.013500 206.515991,46.009457 206.294601,46.015617 
	C206.313644,45.919071 206.554062,45.816368 206.877106,45.863583 
z"/>
<path fill="#244253" opacity="1.000000" stroke="none" 
	d="
M200.893692,45.860859 
	C200.982666,46.012817 200.516296,46.010315 200.283417,46.015701 
	C200.301926,45.917027 200.553314,45.812962 200.893692,45.860859 
z"/>
<path fill="#E9F4F6" opacity="1.000000" stroke="none" 
	d="
M292.412170,241.041138 
	C292.510986,238.602341 292.720367,235.915695 293.356903,233.334366 
	C294.453949,228.885483 295.753296,224.482605 297.100281,220.101166 
	C297.616180,218.423096 298.495758,216.856812 299.549286,215.119415 
	C297.497650,223.613052 295.106293,232.226868 292.412170,241.041138 
z"/>
<path fill="#244253" opacity="1.000000" stroke="none" 
	d="
M296.248901,275.126007 
	C294.981232,274.577484 293.873230,273.690308 292.476929,272.683472 
	C291.100067,271.407043 290.011475,270.250244 288.506226,268.674927 
	C287.054230,267.175873 286.018921,266.095337 285.046326,264.962097 
	C285.109070,264.909424 285.238892,264.809479 285.238892,264.809479 
	C291.153198,265.682678 294.811523,269.081329 296.248901,275.126007 
z"/>
<path fill="#E9F4F6" opacity="1.000000" stroke="none" 
	d="
M282.602936,259.012970 
	C281.468231,252.383255 282.048065,251.271164 288.640015,248.057648 
	C288.344025,249.392609 287.692017,250.787384 286.727417,252.678375 
	C286.188477,253.741928 285.962128,254.309250 285.735748,254.876587 
	C285.735748,254.876587 285.831177,254.870987 285.543762,255.016083 
	C284.371887,256.445099 283.487427,257.729034 282.602936,259.012970 
z"/>
<path fill="#244253" opacity="1.000000" stroke="none" 
	d="
M313.824280,291.868103 
	C310.165497,288.926880 306.539764,285.615509 302.735168,282.046509 
	C308.841644,282.093994 311.247314,286.914886 313.824280,291.868103 
z"/>
<path fill="#244253" opacity="1.000000" stroke="none" 
	d="
M282.485870,259.307007 
	C283.487427,257.729034 284.371887,256.445099 285.530914,254.970047 
	C285.571960,257.851746 285.338440,260.924561 285.171936,264.403442 
	C285.238892,264.809479 285.109070,264.909424 284.758179,264.821411 
	C283.502197,263.827637 282.597107,262.921906 281.692017,262.016144 
	C281.917633,261.211090 282.143219,260.406067 282.485870,259.307007 
z"/>
<path fill="#244253" opacity="1.000000" stroke="none" 
	d="
M302.329163,281.081604 
	C300.400574,279.765747 298.609161,278.100098 296.663940,276.174377 
	C300.727875,274.760223 301.721649,277.592010 302.329163,281.081604 
z"/>
<path fill="#E9F4F6" opacity="1.000000" stroke="none" 
	d="
M300.192322,212.697495 
	C300.070862,211.726685 300.131836,210.459518 300.495789,209.090820 
	C300.657440,210.126587 300.516113,211.263855 300.192322,212.697495 
z"/>
<path fill="#244253" opacity="1.000000" stroke="none" 
	d="
M286.005188,254.713272 
	C285.962128,254.309250 286.188477,253.741928 286.674988,253.008087 
	C286.714966,253.411057 286.494812,253.980499 286.005188,254.713272 
z"/>
<path fill="#E9F4F6" opacity="1.000000" stroke="none" 
	d="
M289.252350,247.838806 
	C289.174896,247.457260 289.352539,246.919205 289.745331,246.186462 
	C289.809509,246.555283 289.658478,247.118790 289.252350,247.838806 
z"/>
<path fill="#E9F4F6" opacity="1.000000" stroke="none" 
	d="
M291.442932,243.277985 
	C291.305145,243.086777 291.427032,242.749725 291.733978,242.212128 
	C291.846893,242.385101 291.774780,242.758606 291.442932,243.277985 
z"/>
<path fill="#E9F4F6" opacity="1.000000" stroke="none" 
	d="
M300.881531,194.746063 
	C300.520172,194.807800 300.427856,194.552475 300.653229,194.122635 
	C300.821625,194.175888 300.881500,194.336166 300.881531,194.746063 
z"/>
<path fill="#244253" opacity="1.000000" stroke="none" 
	d="
M314.757294,293.082825 
	C314.556702,293.132385 314.237885,292.920746 313.821594,292.432800 
	C314.029083,292.378204 314.334045,292.599884 314.757294,293.082825 
z"/>
<path fill="#CD412A" opacity="1.000000" stroke="none" 
	d="
M208.956497,144.100204 
	C208.956497,144.100204 209.169876,144.306458 209.576645,144.510468 
	C210.649567,144.745651 211.315720,144.776825 211.981873,144.808014 
	C212.436584,144.874741 212.891312,144.941452 213.992584,145.166290 
	C220.765182,147.831985 226.891251,150.339569 233.017303,152.847153 
	C233.017303,152.847153 233.350433,153.085403 233.716736,153.410858 
	C239.017258,158.551620 243.951447,163.366943 248.885635,168.182266 
	C248.885635,168.182266 248.972122,168.628723 249.090790,169.055298 
	C249.355103,169.800613 249.601517,169.983536 249.948746,170.030655 
	C249.948746,170.030655 249.994278,170.015488 250.030228,170.387589 
	C251.772232,174.517151 254.307999,178.125839 255.013962,182.062653 
	C256.547913,190.616943 257.147797,199.338730 258.129486,207.992035 
	C258.015076,208.334396 257.900635,208.676758 257.548340,209.530426 
	C257.269379,210.688690 257.228363,211.335663 257.187347,211.982635 
	C257.123077,212.436539 257.058838,212.890427 256.813660,213.978958 
	C254.091995,220.730377 251.551193,226.847168 249.010376,232.963959 
	C249.010376,232.963959 248.970627,232.984192 248.687683,233.171753 
	C243.918777,238.179306 239.432816,242.999298 234.946838,247.819275 
	C234.410843,248.069061 233.874847,248.318817 232.899628,248.823212 
	C232.266190,249.344330 232.071960,249.610825 231.877747,249.877319 
	C231.877731,249.877319 231.421158,249.981613 230.878998,250.154785 
	C227.422913,251.816879 224.509003,253.305817 221.595093,254.794754 
	C221.233414,254.853500 220.871719,254.912247 219.922913,255.084991 
	C217.885361,255.775040 216.434952,256.351074 214.984543,256.927063 
	C214.228745,256.961823 213.472961,256.996582 212.049866,257.071045 
	C210.650406,257.419250 209.918228,257.727814 209.186050,258.036346 
	C209.186050,258.036346 209.061142,257.963593 208.560760,257.960938 
	C202.268265,257.794037 196.415192,258.103210 190.696701,257.367004 
	C178.762344,255.830551 169.068359,249.550247 160.263626,241.722092 
	C160.263626,241.722092 160.011993,242.001022 160.023987,241.565582 
	C158.713181,239.732620 157.390381,238.335098 156.067581,236.937561 
	C156.067581,236.937561 156.000000,236.999649 155.946869,236.634155 
	C152.259247,228.849960 148.624756,221.431244 144.990265,214.012543 
	C144.990906,213.557281 144.991531,213.102036 144.976349,211.990356 
	C144.717056,210.741699 144.473572,210.149475 144.230087,209.557251 
	C144.230087,209.557251 144.240433,209.220352 144.175339,208.632446 
	C142.804855,194.069153 145.817657,181.087219 153.074127,169.081573 
	C153.074127,169.081573 153.003067,169.012756 153.327164,168.911865 
	C154.158432,167.923828 154.665604,167.036667 155.172791,166.149521 
	C155.172791,166.149521 155.013107,165.997513 155.384735,165.950302 
	C157.124893,164.243759 158.493439,162.584442 159.861984,160.925125 
	C159.861984,160.925125 159.945679,160.949783 160.193970,160.873932 
	C160.587662,160.515198 160.733063,160.232315 160.878448,159.949417 
	C160.878448,159.949417 160.962494,159.964371 161.243988,159.831039 
	C162.361359,158.808929 163.197220,157.920151 164.033081,157.031372 
	C164.377701,157.003296 164.664230,156.859482 165.307159,156.303345 
	C166.851425,155.054352 167.981216,154.101959 169.111008,153.149567 
	C169.111008,153.149567 169.041122,153.027664 169.442612,153.029099 
	C175.894318,150.361237 181.944519,147.691940 187.994736,145.022629 
	C188.753723,145.008453 189.512726,144.994278 191.056671,144.921631 
	C197.546570,144.608841 203.251541,144.354523 208.956497,144.100204 
z"/>
<path fill="#FCE9E1" opacity="1.000000" stroke="none" 
	d="
M160.213516,242.090057 
	C169.068359,249.550247 178.762344,255.830551 190.696701,257.367004 
	C196.415192,258.103210 202.268265,257.794037 208.521088,258.021362 
	C207.954834,258.711945 206.958786,259.822968 205.896088,259.890869 
	C196.949738,260.462616 188.301086,259.519135 179.667328,256.491821 
	C172.370255,253.933182 166.677429,249.486816 161.076447,244.618317 
	C160.546539,244.157730 160.457260,243.190201 160.213516,242.090057 
z"/>
<path fill="#FCE9E1" opacity="1.000000" stroke="none" 
	d="
M152.717529,169.113647 
	C145.817657,181.087219 142.804855,194.069153 144.062805,208.506989 
	C143.386169,208.294327 142.192490,207.600479 142.214218,206.947037 
	C142.457764,199.623383 140.398697,192.145874 143.937149,185.016373 
	C145.248444,182.374268 146.213547,179.403381 146.578629,176.487549 
	C147.056900,172.667633 149.170166,170.595200 152.717529,169.113647 
z"/>
<path fill="#FCE9E1" opacity="1.000000" stroke="none" 
	d="
M258.488983,207.848938 
	C257.147797,199.338730 256.547913,190.616943 255.013962,182.062653 
	C254.307999,178.125839 251.772232,174.517151 250.015701,170.407227 
	C255.590607,171.475830 254.996353,176.912888 256.645905,180.759796 
	C259.965942,188.502289 260.550629,196.746246 259.910950,205.077377 
	C259.841980,205.975433 259.216064,206.830734 258.488983,207.848938 
z"/>
<path fill="#FCE9E1" opacity="1.000000" stroke="none" 
	d="
M144.761185,214.276199 
	C148.624756,221.431244 152.259247,228.849960 155.979675,236.601837 
	C153.129715,233.928009 149.295120,231.371902 147.499542,227.792831 
	C145.529999,223.867035 145.440720,218.997910 144.761185,214.276199 
z"/>
<path fill="#FCE9E1" opacity="1.000000" stroke="none" 
	d="
M248.909454,167.804810 
	C243.951447,163.366943 239.017258,158.551620 233.919464,153.439758 
	C241.848053,154.681870 246.092834,160.308533 248.909454,167.804810 
z"/>
<path fill="#FCE9E1" opacity="1.000000" stroke="none" 
	d="
M249.375336,232.957977 
	C251.551193,226.847168 254.091995,220.730377 256.852234,214.321884 
	C258.107391,219.967270 254.022629,230.509781 249.375336,232.957977 
z"/>
<path fill="#FCE9E1" opacity="1.000000" stroke="none" 
	d="
M235.148285,248.050415 
	C239.432816,242.999298 243.918777,238.179306 248.689774,233.193970 
	C246.868439,236.709610 245.157425,240.713425 242.511551,243.953918 
	C240.849930,245.988937 237.785065,246.878235 235.148285,248.050415 
z"/>
<path fill="#FCE9E1" opacity="1.000000" stroke="none" 
	d="
M187.739777,144.790894 
	C181.944519,147.691940 175.894318,150.361237 169.492630,153.078522 
	C171.221619,151.321396 173.032059,148.876419 175.444641,147.858276 
	C179.245224,146.254318 183.450729,145.609833 187.739777,144.790894 
z"/>
<path fill="#FCE9E1" opacity="1.000000" stroke="none" 
	d="
M232.999435,152.483978 
	C226.891251,150.339569 220.765182,147.831985 214.336243,145.122726 
	C219.594711,143.957870 230.862076,148.239136 232.999435,152.483978 
z"/>
<path fill="#FCE9E1" opacity="1.000000" stroke="none" 
	d="
M208.842133,143.719666 
	C203.251541,144.354523 197.546570,144.608841 191.424530,144.825378 
	C194.353729,141.535141 203.659424,140.774490 208.842133,143.719666 
z"/>
<path fill="#E9F4F6" opacity="1.000000" stroke="none" 
	d="
M281.521057,262.313477 
	C282.597107,262.921906 283.502197,263.827637 284.695435,264.874084 
	C286.018921,266.095337 287.054230,267.175873 288.233032,268.549927 
	C283.983185,269.078369 280.883820,267.854462 281.521057,262.313477 
z"/>
<path fill="#FCE9E1" opacity="1.000000" stroke="none" 
	d="
M221.926422,254.860962 
	C224.509003,253.305817 227.422913,251.816879 230.679688,250.277679 
	C230.748535,256.731628 225.656860,254.251129 221.926422,254.860962 
z"/>
<path fill="#FCE9E1" opacity="1.000000" stroke="none" 
	d="
M156.043152,237.309845 
	C157.390381,238.335098 158.713181,239.732620 160.154312,241.429733 
	C156.156586,243.216141 156.198395,240.332733 156.043152,237.309845 
z"/>
<path fill="#FCE9E1" opacity="1.000000" stroke="none" 
	d="
M159.497009,160.938141 
	C158.493439,162.584442 157.124893,164.243759 155.458557,166.031448 
	C156.484528,164.423584 157.808289,162.687363 159.497009,160.938141 
z"/>
<path fill="#FCE9E1" opacity="1.000000" stroke="none" 
	d="
M215.201218,257.144165 
	C216.434952,256.351074 217.885361,255.775040 219.679016,255.215790 
	C218.487488,255.942123 216.952682,256.651672 215.201218,257.144165 
z"/>
<path fill="#FCE9E1" opacity="1.000000" stroke="none" 
	d="
M168.741516,153.116516 
	C167.981216,154.101959 166.851425,155.054352 165.407074,156.079315 
	C166.185699,155.129089 167.278854,154.106277 168.741516,153.116516 
z"/>
<path fill="#FCE9E1" opacity="1.000000" stroke="none" 
	d="
M163.677368,157.028076 
	C163.197220,157.920151 162.361359,158.808929 161.229630,159.790848 
	C161.729736,158.930908 162.525696,157.977829 163.677368,157.028076 
z"/>
<path fill="#FCE9E1" opacity="1.000000" stroke="none" 
	d="
M154.826599,166.184967 
	C154.665604,167.036667 154.158432,167.923828 153.368591,168.937897 
	C153.550735,168.116669 154.015564,167.168533 154.826599,166.184967 
z"/>
<path fill="#FCE9E1" opacity="1.000000" stroke="none" 
	d="
M209.489136,258.071167 
	C209.918228,257.727814 210.650406,257.419250 211.683319,257.165833 
	C211.253433,257.515930 210.522827,257.810944 209.489136,258.071167 
z"/>
<path fill="#FCE9E1" opacity="1.000000" stroke="none" 
	d="
M144.171326,209.881897 
	C144.473572,210.149475 144.717056,210.741699 144.891815,211.658340 
	C144.586227,211.390686 144.349380,210.798615 144.171326,209.881897 
z"/>
<path fill="#FCE9E1" opacity="1.000000" stroke="none" 
	d="
M257.388306,211.725189 
	C257.228363,211.335663 257.269379,210.688690 257.540833,209.801788 
	C257.710571,210.197144 257.649902,210.832443 257.388306,211.725189 
z"/>
<path fill="#FCE9E1" opacity="1.000000" stroke="none" 
	d="
M211.712524,144.604919 
	C211.315720,144.776825 210.649567,144.745651 209.724014,144.493118 
	C210.124130,144.315109 210.783661,144.358459 211.712524,144.604919 
z"/>
<path fill="#FCE9E1" opacity="1.000000" stroke="none" 
	d="
M232.106873,249.808929 
	C232.071960,249.610825 232.266190,249.344330 232.717270,249.060242 
	C232.835129,249.342712 232.622421,249.575348 232.106873,249.808929 
z"/>
<path fill="#FCE9E1" opacity="1.000000" stroke="none" 
	d="
M249.901337,169.816162 
	C249.601517,169.983536 249.355103,169.800613 249.218903,169.243149 
	C249.509933,169.126984 249.718460,169.326065 249.901337,169.816162 
z"/>
<path fill="#FCE9E1" opacity="1.000000" stroke="none" 
	d="
M160.669739,160.040344 
	C160.733063,160.232315 160.587662,160.515198 160.193146,160.830322 
	C160.027252,160.555801 160.199585,160.312042 160.669739,160.040344 
z"/>
</svg>