<?xml version="1.0" encoding="UTF-8" standalone="no"?>
<!-- Created with Inkscape (http://www.inkscape.org/) -->
<svg
   xmlns:dc="http://purl.org/dc/elements/1.1/"
   xmlns:cc="http://web.resource.org/cc/"
   xmlns:rdf="http://www.w3.org/1999/02/22-rdf-syntax-ns#"
   xmlns:svg="http://www.w3.org/2000/svg"
   xmlns="http://www.w3.org/2000/svg"
   xmlns:sodipodi="http://inkscape.sourceforge.net/DTD/sodipodi-0.dtd"
   xmlns:inkscape="http://www.inkscape.org/namespaces/inkscape"
   width="85.999992mm"
   height="57mm"
   id="svg2"
   sodipodi:version="0.32"
   inkscape:version="0.43"
   version="1.0"
   sodipodi:docbase="/home/dermeister/wikipedia"
   sodipodi:docname="SixSigma.svg">
  <defs
     id="defs4" />
  <sodipodi:namedview
     id="base"
     pagecolor="#ffffff"
     bordercolor="#666666"
     borderopacity="1.0"
     inkscape:pageopacity="0.0"
     inkscape:pageshadow="2"
     inkscape:zoom="1.979899"
     inkscape:cx="150.50168"
     inkscape:cy="79.921466"
     inkscape:document-units="mm"
     inkscape:current-layer="layer1"
     showgrid="true"
     gridspacingy="1mm"
     gridspacingx="1mm"
     gridoriginy="0mm"
     gridoriginx="0mm"
     gridtolerance="1mm"
     inkscape:grid-points="true"
     guidetolerance="1mm"
     inkscape:guide-points="true"
     inkscape:window-width="1150"
     inkscape:window-height="836"
     inkscape:window-x="0"
     inkscape:window-y="0" />
  <metadata
     id="metadata7">
    <rdf:RDF>
      <cc:Work
         rdf:about="">
        <dc:format>image/svg+xml</dc:format>
        <dc:type
           rdf:resource="http://purl.org/dc/dcmitype/StillImage" />
        <dc:creator>
          <cc:Agent>
            <dc:title>Alexandre Erwin Ittner</dc:title>
          </cc:Agent>
        </dc:creator>
        <dc:title>SixSigma</dc:title>
        <cc:license
           rdf:resource="http://creativecommons.org/licenses/by-sa/2.0/" />
      </cc:Work>
      <cc:License
         rdf:about="http://creativecommons.org/licenses/by-sa/2.0/">
        <cc:permits
           rdf:resource="http://web.resource.org/cc/Reproduction" />
        <cc:permits
           rdf:resource="http://web.resource.org/cc/Distribution" />
        <cc:requires
           rdf:resource="http://web.resource.org/cc/Notice" />
        <cc:requires
           rdf:resource="http://web.resource.org/cc/Attribution" />
        <cc:permits
           rdf:resource="http://web.resource.org/cc/DerivativeWorks" />
        <cc:requires
           rdf:resource="http://web.resource.org/cc/ShareAlike" />
      </cc:License>
    </rdf:RDF>
  </metadata>
  <g
     inkscape:label="Layer 1"
     inkscape:groupmode="layer"
     id="layer1">
    <path
       style="font-size:288px;font-style:normal;font-variant:normal;font-weight:normal;font-stretch:normal;text-align:start;line-height:125%;writing-mode:lr-tb;text-anchor:start;fill:#000000;fill-opacity:1;stroke:none;stroke-width:1px;stroke-linecap:butt;stroke-linejoin:miter;stroke-opacity:1;font-family:Standard Symbols L"
       d="M 110.84375 0.9375 C 87.48715 1.20207 74.947172 4.300447 58.46875 14.1875 C 23.332784 34.92348 0 77.842286 0 121.90625 C 0 167.69817 26.794785 201.96875 62.21875 201.96875 C 96.20272 201.96875 124.40625 172.31917 124.40625 136.03125 C 124.40625 101.75928 100.80747 77.5625 67.6875 77.5625 C 54.727513 77.562503 42.609487 81.30426 29.9375 89.65625 C 40.881489 41.848303 74.31179 9.005 114.34375 6.125 L 114.34375 0.9375 C 113.54275 0.9375 112.74552 0.93173436 111.96875 0.9375 C 111.5925 0.94029273 111.21449 0.93330048 110.84375 0.9375 z M 234 54.21875 C 213.19726 54.48492 198.59569 57.113291 186.0625 62.5625 C 158.12653 75.234491 142.28125 97.716026 142.28125 124.5 C 142.28125 143.21998 149.47076 162.2115 162.71875 177.1875 C 177.69473 194.46749 194.12302 201.96875 216.875 201.96875 C 236.45898 201.96875 253.15826 195.933 266.40625 184.125 C 279.36625 172.31701 287.125 155.89577 287.125 140.34375 C 287.12501 118.45577 270.43422 96.84923 239.90625 79.28125 L 302.96875 79.28125 L 302.96875 54.21875 L 237.59375 54.21875 C 236.88275 54.21875 236.19709 54.21367 235.5 54.21875 C 234.99352 54.222441 234.49927 54.212362 234 54.21875 z M 215.875 79.28125 C 215.97771 79.278546 216.08452 79.283422 216.1875 79.28125 C 216.60597 79.272424 217.0145 79.28125 217.4375 79.28125 L 226.375 79.28125 C 251.14298 104.91322 256.59375 115.85277 256.59375 139.46875 C 256.59375 169.42077 242.21823 189.59375 220.90625 189.59375 C 194.41028 189.59376 172.5 160.48642 172.5 125.0625 C 172.50001 97.952841 189.68505 79.970838 215.875 79.28125 z M 57.65625 91.375 C 57.807679 91.371098 57.972482 91.377782 58.125 91.375 C 58.521794 91.367763 58.9075 91.375 59.3125 91.375 C 73.712487 91.374998 83.532257 97.426006 90.15625 111.25 C 95.916243 122.76999 99.0625 136.87024 99.0625 150.40625 C 99.062501 175.46226 86.39648 191.59375 66.8125 191.59375 C 41.468523 191.59375 25.34375 165.40267 25.34375 124.21875 C 25.34375 117.01876 25.917251 108.07 26.78125 103.75 C 27.06925 102.598 27.0625 102.614 27.0625 101.75 C 40.683775 94.122082 48.116212 91.620811 57.65625 91.375 z "
       id="text5184" />
  </g>
</svg>
